solid outlet46
  facet normal 6.294226e-01 6.474103e-02 -7.743615e-01
    outer loop
      vertex   1.316860e-01 -5.100088e-04 -1.285451e-01
      vertex   1.316220e-01 -4.620090e-04 -1.285931e-01
      vertex   1.315900e-01 -4.140091e-04 -1.286151e-01
    endloop
  endfacet
  facet normal 6.307895e-01 7.042403e-02 -7.727516e-01
    outer loop
      vertex   1.315040e-01 -1.620088e-04 -1.286631e-01
      vertex   1.311360e-01 8.299913e-04 -1.288731e-01
      vertex   1.312660e-01 1.113991e-03 -1.287411e-01
    endloop
  endfacet
  facet normal 6.315879e-01 6.842465e-02 -7.722790e-01
    outer loop
      vertex   1.316860e-01 -5.100088e-04 -1.285451e-01
      vertex   1.315900e-01 -4.140091e-04 -1.286151e-01
      vertex   1.315040e-01 -1.620088e-04 -1.286631e-01
    endloop
  endfacet
  facet normal 6.301975e-01 6.955550e-02 -7.733131e-01
    outer loop
      vertex   1.330780e-01 -1.426009e-03 -1.274931e-01
      vertex   1.324260e-01 -1.300009e-03 -1.280131e-01
      vertex   1.316860e-01 -5.100088e-04 -1.285451e-01
    endloop
  endfacet
  facet normal 6.258209e-01 8.887280e-02 -7.748870e-01
    outer loop
      vertex   1.333060e-01 -1.340009e-03 -1.272991e-01
      vertex   1.331920e-01 -1.444009e-03 -1.274031e-01
      vertex   1.330780e-01 -1.426009e-03 -1.274931e-01
    endloop
  endfacet
  facet normal 6.295436e-01 7.003116e-02 -7.738026e-01
    outer loop
      vertex   1.339280e-01 -3.240089e-04 -1.267011e-01
      vertex   1.338220e-01 -9.180088e-04 -1.268411e-01
      vertex   1.333060e-01 -1.340009e-03 -1.272991e-01
    endloop
  endfacet
  facet normal 6.251722e-01 6.985790e-02 -7.773542e-01
    outer loop
      vertex   1.337600e-01 1.045991e-03 -1.267131e-01
      vertex   1.340000e-01 9.999132e-05 -1.266051e-01
      vertex   1.339280e-01 -3.240089e-04 -1.267011e-01
    endloop
  endfacet
  facet normal 6.239514e-01 5.761676e-02 -7.793362e-01
    outer loop
      vertex   1.329440e-01 1.739991e-03 -1.273151e-01
      vertex   1.337220e-01 1.159991e-03 -1.267351e-01
      vertex   1.337600e-01 1.045991e-03 -1.267131e-01
    endloop
  endfacet
  facet normal 6.232300e-01 3.582912e-02 -7.812174e-01
    outer loop
      vertex   1.327320e-01 1.807991e-03 -1.274811e-01
      vertex   1.328700e-01 1.805991e-03 -1.273711e-01
      vertex   1.329440e-01 1.739991e-03 -1.273151e-01
    endloop
  endfacet
  facet normal 6.303772e-01 6.996157e-02 -7.731300e-01
    outer loop
      vertex   1.317220e-01 1.647991e-03 -1.283191e-01
      vertex   1.320800e-01 1.847991e-03 -1.280091e-01
      vertex   1.327320e-01 1.807991e-03 -1.274811e-01
    endloop
  endfacet
  facet normal 6.311682e-01 7.139008e-02 -7.723537e-01
    outer loop
      vertex   1.312660e-01 1.113991e-03 -1.287411e-01
      vertex   1.314340e-01 1.575991e-03 -1.285611e-01
      vertex   1.317220e-01 1.647991e-03 -1.283191e-01
    endloop
  endfacet
  facet normal 6.353045e-01 7.149887e-02 -7.689448e-01
    outer loop
      vertex   1.316860e-01 -5.100088e-04 -1.285451e-01
      vertex   1.315040e-01 -1.620088e-04 -1.286631e-01
      vertex   1.312660e-01 1.113991e-03 -1.287411e-01
    endloop
  endfacet
  facet normal 6.307316e-01 7.102036e-02 -7.727443e-01
    outer loop
      vertex   1.333060e-01 -1.340009e-03 -1.272991e-01
      vertex   1.330780e-01 -1.426009e-03 -1.274931e-01
      vertex   1.316860e-01 -5.100088e-04 -1.285451e-01
    endloop
  endfacet
  facet normal 6.292054e-01 7.038144e-02 -7.740459e-01
    outer loop
      vertex   1.337600e-01 1.045991e-03 -1.267131e-01
      vertex   1.339280e-01 -3.240089e-04 -1.267011e-01
      vertex   1.333060e-01 -1.340009e-03 -1.272991e-01
    endloop
  endfacet
  facet normal 6.282685e-01 6.631069e-02 -7.751655e-01
    outer loop
      vertex   1.327320e-01 1.807991e-03 -1.274811e-01
      vertex   1.329440e-01 1.739991e-03 -1.273151e-01
      vertex   1.337600e-01 1.045991e-03 -1.267131e-01
    endloop
  endfacet
  facet normal 6.299354e-01 7.311064e-02 -7.731987e-01
    outer loop
      vertex   1.312660e-01 1.113991e-03 -1.287411e-01
      vertex   1.317220e-01 1.647991e-03 -1.283191e-01
      vertex   1.327320e-01 1.807991e-03 -1.274811e-01
    endloop
  endfacet
  facet normal 6.303773e-01 6.971686e-02 -7.731520e-01
    outer loop
      vertex   1.333060e-01 -1.340009e-03 -1.272991e-01
      vertex   1.316860e-01 -5.100088e-04 -1.285451e-01
      vertex   1.312660e-01 1.113991e-03 -1.287411e-01
    endloop
  endfacet
  facet normal 6.298726e-01 7.012685e-02 -7.735262e-01
    outer loop
      vertex   1.327320e-01 1.807991e-03 -1.274811e-01
      vertex   1.337600e-01 1.045991e-03 -1.267131e-01
      vertex   1.333060e-01 -1.340009e-03 -1.272991e-01
    endloop
  endfacet
  facet normal 6.308336e-01 7.034855e-02 -7.727225e-01
    outer loop
      vertex   1.312660e-01 1.113991e-03 -1.287411e-01
      vertex   1.327320e-01 1.807991e-03 -1.274811e-01
      vertex   1.333060e-01 -1.340009e-03 -1.272991e-01
    endloop
  endfacet
endsolid
