solid outlet5
  facet normal 7.554129e-01 -6.361057e-01 1.572290e-01
    outer loop
      vertex   9.556399e-02 -9.812010e-03 -1.287531e-01
      vertex   9.572199e-02 -9.656010e-03 -1.288811e-01
      vertex   9.578999e-02 -9.510010e-03 -1.286171e-01
    endloop
  endfacet
  facet normal 7.583814e-01 -6.365261e-01 1.403290e-01
    outer loop
      vertex   9.578999e-02 -9.510010e-03 -1.286171e-01
      vertex   9.561599e-02 -9.686008e-03 -1.284751e-01
      vertex   9.560399e-02 -9.710009e-03 -1.285191e-01
    endloop
  endfacet
  facet normal 7.591685e-01 -6.341564e-01 1.466591e-01
    outer loop
      vertex   9.578999e-02 -9.510010e-03 -1.286171e-01
      vertex   9.560399e-02 -9.710009e-03 -1.285191e-01
      vertex   9.556399e-02 -9.812010e-03 -1.287531e-01
    endloop
  endfacet
  facet normal 6.249064e-01 -7.414711e-01 2.443616e-01
    outer loop
      vertex   9.639999e-02 -9.220009e-03 -1.292971e-01
      vertex   9.646999e-02 -9.074009e-03 -1.290331e-01
      vertex   9.578999e-02 -9.510010e-03 -1.286171e-01
    endloop
  endfacet
  facet normal 6.268376e-01 -7.388986e-01 2.471912e-01
    outer loop
      vertex   9.639999e-02 -9.220009e-03 -1.292971e-01
      vertex   9.578999e-02 -9.510010e-03 -1.286171e-01
      vertex   9.572199e-02 -9.656010e-03 -1.288811e-01
    endloop
  endfacet
  facet normal 4.681198e-01 -8.199921e-01 3.293581e-01
    outer loop
      vertex   9.724599e-02 -8.778009e-03 -1.293991e-01
      vertex   9.646999e-02 -9.074009e-03 -1.290331e-01
      vertex   9.639999e-02 -9.220009e-03 -1.292971e-01
    endloop
  endfacet
  facet normal 4.679114e-01 -8.189019e-01 3.323533e-01
    outer loop
      vertex   9.724599e-02 -8.778009e-03 -1.293991e-01
      vertex   9.639999e-02 -9.220009e-03 -1.292971e-01
      vertex   9.717799e-02 -8.924009e-03 -1.296631e-01
    endloop
  endfacet
  facet normal 2.910158e-01 -8.669937e-01 4.045141e-01
    outer loop
      vertex   9.809199e-02 -8.634009e-03 -1.296991e-01
      vertex   9.724599e-02 -8.778009e-03 -1.293991e-01
      vertex   9.717799e-02 -8.924009e-03 -1.296631e-01
    endloop
  endfacet
  facet normal 2.910155e-01 -8.669926e-01 4.045167e-01
    outer loop
      vertex   9.809199e-02 -8.634009e-03 -1.296991e-01
      vertex   9.717799e-02 -8.924009e-03 -1.296631e-01
      vertex   9.802399e-02 -8.780010e-03 -1.299631e-01
    endloop
  endfacet
  facet normal 1.049023e-01 -8.814616e-01 4.604573e-01
    outer loop
      vertex   9.824199e-02 -8.636009e-03 -1.297371e-01
      vertex   9.809199e-02 -8.634009e-03 -1.296991e-01
      vertex   9.802399e-02 -8.780010e-03 -1.299631e-01
    endloop
  endfacet
  facet normal 1.161426e-01 -8.846163e-01 4.516248e-01
    outer loop
      vertex   9.824199e-02 -8.636009e-03 -1.297371e-01
      vertex   9.802399e-02 -8.780010e-03 -1.299631e-01
      vertex   9.816399e-02 -8.780010e-03 -1.299991e-01
    endloop
  endfacet
  facet normal -2.580037e-01 -5.007891e-01 -8.262229e-01
    outer loop
      vertex   9.738399e-02 -1.275401e-02 -1.272451e-01
      vertex   9.694799e-02 -1.233801e-02 -1.273611e-01
      vertex   9.690199e-02 -1.227801e-02 -1.273831e-01
    endloop
  endfacet
  facet normal -5.734741e-01 -5.590516e-01 -5.988228e-01
    outer loop
      vertex   9.690199e-02 -1.227801e-02 -1.273831e-01
      vertex   9.687399e-02 -1.223001e-02 -1.274011e-01
      vertex   9.641599e-02 -1.139601e-02 -1.277411e-01
    endloop
  endfacet
  facet normal -2.687074e-01 -4.857182e-01 -8.317897e-01
    outer loop
      vertex   9.641599e-02 -1.139601e-02 -1.277411e-01
      vertex   9.591999e-02 -1.046401e-02 -1.281251e-01
      vertex   9.583399e-02 -1.027601e-02 -1.282071e-01
    endloop
  endfacet
  facet normal -2.222471e-01 -4.696695e-01 -8.544102e-01
    outer loop
      vertex   9.579999e-02 -1.016601e-02 -1.282591e-01
      vertex   9.561599e-02 -9.686008e-03 -1.284751e-01
      vertex   9.578999e-02 -9.510010e-03 -1.286171e-01
    endloop
  endfacet
  facet normal -2.290541e-01 -4.730071e-01 -8.507635e-01
    outer loop
      vertex   9.641599e-02 -1.139601e-02 -1.277411e-01
      vertex   9.583399e-02 -1.027601e-02 -1.282071e-01
      vertex   9.579999e-02 -1.016601e-02 -1.282591e-01
    endloop
  endfacet
  facet normal -2.154932e-01 -4.668613e-01 -8.576731e-01
    outer loop
      vertex   9.738399e-02 -1.275401e-02 -1.272451e-01
      vertex   9.690199e-02 -1.227801e-02 -1.273831e-01
      vertex   9.641599e-02 -1.139601e-02 -1.277411e-01
    endloop
  endfacet
  facet normal -2.204391e-01 -4.598110e-01 -8.602212e-01
    outer loop
      vertex   9.819799e-02 -1.291601e-02 -1.273671e-01
      vertex   9.780599e-02 -1.287401e-02 -1.272891e-01
      vertex   9.738399e-02 -1.275401e-02 -1.272451e-01
    endloop
  endfacet
  facet normal -2.445438e-01 -3.192404e-01 -9.155784e-01
    outer loop
      vertex   9.932399e-02 -1.287801e-02 -1.276811e-01
      vertex   9.912999e-02 -1.289001e-02 -1.276251e-01
      vertex   9.819799e-02 -1.291601e-02 -1.273671e-01
    endloop
  endfacet
  facet normal -2.670868e-01 -4.025862e-01 -8.755507e-01
    outer loop
      vertex   1.002120e-01 -1.245801e-02 -1.281451e-01
      vertex   9.941999e-02 -1.284601e-02 -1.277251e-01
      vertex   9.932399e-02 -1.287801e-02 -1.276811e-01
    endloop
  endfacet
  facet normal -2.025191e-01 -4.812929e-01 -8.528442e-01
    outer loop
      vertex   1.006460e-01 -1.174401e-02 -1.286511e-01
      vertex   1.004320e-01 -1.218201e-02 -1.283531e-01
      vertex   1.002120e-01 -1.245801e-02 -1.281451e-01
    endloop
  endfacet
  facet normal -2.324112e-01 -4.679689e-01 -8.526372e-01
    outer loop
      vertex   1.004220e-01 -1.050001e-02 -1.292771e-01
      vertex   1.005160e-01 -1.065601e-02 -1.292171e-01
      vertex   1.005300e-01 -1.081601e-02 -1.291331e-01
    endloop
  endfacet
  facet normal -2.205798e-01 -4.711522e-01 -8.540258e-01
    outer loop
      vertex   1.005300e-01 -1.081601e-02 -1.291331e-01
      vertex   1.006460e-01 -1.174401e-02 -1.286511e-01
      vertex   1.002120e-01 -1.245801e-02 -1.281451e-01
    endloop
  endfacet
  facet normal -2.218101e-01 -4.730325e-01 -8.526667e-01
    outer loop
      vertex   1.002120e-01 -1.245801e-02 -1.281451e-01
      vertex   9.932399e-02 -1.287801e-02 -1.276811e-01
      vertex   9.819799e-02 -1.291601e-02 -1.273671e-01
    endloop
  endfacet
  facet normal -2.215955e-01 -4.700123e-01 -8.543910e-01
    outer loop
      vertex   9.819799e-02 -1.291601e-02 -1.273671e-01
      vertex   9.738399e-02 -1.275401e-02 -1.272451e-01
      vertex   9.641599e-02 -1.139601e-02 -1.277411e-01
    endloop
  endfacet
  facet normal -2.193823e-01 -4.699466e-01 -8.549980e-01
    outer loop
      vertex   9.641599e-02 -1.139601e-02 -1.277411e-01
      vertex   9.579999e-02 -1.016601e-02 -1.282591e-01
      vertex   9.578999e-02 -9.510010e-03 -1.286171e-01
    endloop
  endfacet
  facet normal -2.278368e-01 -4.623010e-01 -8.569528e-01
    outer loop
      vertex   9.578999e-02 -9.510010e-03 -1.286171e-01
      vertex   9.646999e-02 -9.074009e-03 -1.290331e-01
      vertex   9.724599e-02 -8.778009e-03 -1.293991e-01
    endloop
  endfacet
  facet normal -2.225417e-01 -4.709415e-01 -8.536330e-01
    outer loop
      vertex   9.724599e-02 -8.778009e-03 -1.293991e-01
      vertex   9.809199e-02 -8.634009e-03 -1.296991e-01
      vertex   9.824199e-02 -8.636009e-03 -1.297371e-01
    endloop
  endfacet
  facet normal -2.045236e-01 -4.444903e-01 -8.721230e-01
    outer loop
      vertex   9.824199e-02 -8.636009e-03 -1.297371e-01
      vertex   9.851199e-02 -8.772009e-03 -1.297311e-01
      vertex   9.930999e-02 -9.304008e-03 -1.296471e-01
    endloop
  endfacet
  facet normal -2.198398e-01 -4.690270e-01 -8.553854e-01
    outer loop
      vertex   9.930999e-02 -9.304008e-03 -1.296471e-01
      vertex   9.976199e-02 -9.680010e-03 -1.295571e-01
      vertex   1.004220e-01 -1.050001e-02 -1.292771e-01
    endloop
  endfacet
  facet normal -2.325070e-01 -4.679856e-01 -8.526019e-01
    outer loop
      vertex   1.004220e-01 -1.050001e-02 -1.292771e-01
      vertex   1.005300e-01 -1.081601e-02 -1.291331e-01
      vertex   1.002120e-01 -1.245801e-02 -1.281451e-01
    endloop
  endfacet
  facet normal -2.226199e-01 -4.710122e-01 -8.535736e-01
    outer loop
      vertex   1.002120e-01 -1.245801e-02 -1.281451e-01
      vertex   9.819799e-02 -1.291601e-02 -1.273671e-01
      vertex   9.641599e-02 -1.139601e-02 -1.277411e-01
    endloop
  endfacet
  facet normal -2.221783e-01 -4.704185e-01 -8.540159e-01
    outer loop
      vertex   9.641599e-02 -1.139601e-02 -1.277411e-01
      vertex   9.578999e-02 -9.510010e-03 -1.286171e-01
      vertex   9.724599e-02 -8.778009e-03 -1.293991e-01
    endloop
  endfacet
  facet normal -2.225680e-01 -4.708544e-01 -8.536742e-01
    outer loop
      vertex   9.724599e-02 -8.778009e-03 -1.293991e-01
      vertex   9.824199e-02 -8.636009e-03 -1.297371e-01
      vertex   9.930999e-02 -9.304008e-03 -1.296471e-01
    endloop
  endfacet
  facet normal -2.214271e-01 -4.701801e-01 -8.543423e-01
    outer loop
      vertex   9.930999e-02 -9.304008e-03 -1.296471e-01
      vertex   1.004220e-01 -1.050001e-02 -1.292771e-01
      vertex   1.002120e-01 -1.245801e-02 -1.281451e-01
    endloop
  endfacet
  facet normal -2.224698e-01 -4.703144e-01 -8.539974e-01
    outer loop
      vertex   1.002120e-01 -1.245801e-02 -1.281451e-01
      vertex   9.641599e-02 -1.139601e-02 -1.277411e-01
      vertex   9.724599e-02 -8.778009e-03 -1.293991e-01
    endloop
  endfacet
  facet normal -2.224692e-01 -4.703140e-01 -8.539978e-01
    outer loop
      vertex   9.724599e-02 -8.778009e-03 -1.293991e-01
      vertex   9.930999e-02 -9.304008e-03 -1.296471e-01
      vertex   1.002120e-01 -1.245801e-02 -1.281451e-01
    endloop
  endfacet
endsolid
