solid outlet38
  facet normal 5.918056e-01 7.424822e-01 3.138252e-01
    outer loop
      vertex   1.003160e-01 2.391199e-02 -4.327307e-02
      vertex   1.001460e-01 2.384799e-02 -4.280107e-02
      vertex   1.001020e-01 2.379599e-02 -4.259507e-02
    endloop
  endfacet
  facet normal 6.345029e-01 7.101317e-01 3.051541e-01
    outer loop
      vertex   1.001020e-01 2.379599e-02 -4.259507e-02
      vertex   1.001380e-01 2.371999e-02 -4.249306e-02
      vertex   1.003700e-01 2.335199e-02 -4.211907e-02
    endloop
  endfacet
  facet normal 6.209422e-01 7.166230e-01 3.176198e-01
    outer loop
      vertex   1.003700e-01 2.335199e-02 -4.211907e-02
      vertex   1.005820e-01 2.311599e-02 -4.200107e-02
      vertex   1.009660e-01 2.276199e-02 -4.195307e-02
    endloop
  endfacet
  facet normal 6.198412e-01 7.180659e-01 3.165096e-01
    outer loop
      vertex   1.009660e-01 2.276199e-02 -4.195307e-02
      vertex   1.012240e-01 2.253399e-02 -4.194106e-02
      vertex   1.016860e-01 2.222599e-02 -4.214707e-02
    endloop
  endfacet
  facet normal 6.425596e-01 6.752191e-01 3.622103e-01
    outer loop
      vertex   1.016860e-01 2.222599e-02 -4.214707e-02
      vertex   1.017840e-01 2.216599e-02 -4.220907e-02
      vertex   1.018640e-01 2.213599e-02 -4.229506e-02
    endloop
  endfacet
  facet normal 6.194932e-01 7.175555e-01 3.183431e-01
    outer loop
      vertex   1.018640e-01 2.213599e-02 -4.229506e-02
      vertex   1.022340e-01 2.200999e-02 -4.273107e-02
      vertex   1.024540e-01 2.210399e-02 -4.337107e-02
    endloop
  endfacet
  facet normal 6.513825e-01 6.936767e-01 3.074306e-01
    outer loop
      vertex   1.024540e-01 2.210399e-02 -4.337107e-02
      vertex   1.024700e-01 2.211999e-02 -4.344106e-02
      vertex   1.024600e-01 2.214799e-02 -4.348307e-02
    endloop
  endfacet
  facet normal 6.201955e-01 7.168228e-01 3.186261e-01
    outer loop
      vertex   1.024600e-01 2.214799e-02 -4.348307e-02
      vertex   1.023180e-01 2.254199e-02 -4.409307e-02
      vertex   1.019140e-01 2.295999e-02 -4.424707e-02
    endloop
  endfacet
  facet normal 6.279074e-01 7.177307e-01 3.009899e-01
    outer loop
      vertex   1.019140e-01 2.295999e-02 -4.424707e-02
      vertex   1.017800e-01 2.309399e-02 -4.428707e-02
      vertex   1.017480e-01 2.312199e-02 -4.428707e-02
    endloop
  endfacet
  facet normal 5.477523e-01 8.348217e-01 -5.513638e-02
    outer loop
      vertex   1.017480e-01 2.312199e-02 -4.428707e-02
      vertex   1.011800e-01 2.350999e-02 -4.405507e-02
      vertex   1.009080e-01 2.369599e-02 -4.394106e-02
    endloop
  endfacet
  facet normal 6.086614e-01 7.336286e-01 3.021925e-01
    outer loop
      vertex   1.009080e-01 2.369599e-02 -4.394106e-02
      vertex   1.008880e-01 2.370599e-02 -4.392507e-02
      vertex   1.003160e-01 2.391199e-02 -4.327307e-02
    endloop
  endfacet
  facet normal 6.209042e-01 7.162552e-01 3.185223e-01
    outer loop
      vertex   1.003160e-01 2.391199e-02 -4.327307e-02
      vertex   1.001020e-01 2.379599e-02 -4.259507e-02
      vertex   1.003700e-01 2.335199e-02 -4.211907e-02
    endloop
  endfacet
  facet normal 6.196779e-01 7.162638e-01 3.208825e-01
    outer loop
      vertex   1.003700e-01 2.335199e-02 -4.211907e-02
      vertex   1.009660e-01 2.276199e-02 -4.195307e-02
      vertex   1.016860e-01 2.222599e-02 -4.214707e-02
    endloop
  endfacet
  facet normal 6.268324e-01 7.092254e-01 3.226151e-01
    outer loop
      vertex   1.016860e-01 2.222599e-02 -4.214707e-02
      vertex   1.018640e-01 2.213599e-02 -4.229506e-02
      vertex   1.024540e-01 2.210399e-02 -4.337107e-02
    endloop
  endfacet
  facet normal 6.238952e-01 7.154316e-01 3.145034e-01
    outer loop
      vertex   1.024540e-01 2.210399e-02 -4.337107e-02
      vertex   1.024600e-01 2.214799e-02 -4.348307e-02
      vertex   1.019140e-01 2.295999e-02 -4.424707e-02
    endloop
  endfacet
  facet normal 6.208785e-01 7.153629e-01 3.205710e-01
    outer loop
      vertex   1.019140e-01 2.295999e-02 -4.424707e-02
      vertex   1.017480e-01 2.312199e-02 -4.428707e-02
      vertex   1.009080e-01 2.369599e-02 -4.394106e-02
    endloop
  endfacet
  facet normal 6.208119e-01 7.163194e-01 3.185578e-01
    outer loop
      vertex   1.009080e-01 2.369599e-02 -4.394106e-02
      vertex   1.003160e-01 2.391199e-02 -4.327307e-02
      vertex   1.003700e-01 2.335199e-02 -4.211907e-02
    endloop
  endfacet
  facet normal 6.203262e-01 7.170994e-01 3.177480e-01
    outer loop
      vertex   1.003700e-01 2.335199e-02 -4.211907e-02
      vertex   1.016860e-01 2.222599e-02 -4.214707e-02
      vertex   1.024540e-01 2.210399e-02 -4.337107e-02
    endloop
  endfacet
  facet normal 6.209188e-01 7.166734e-01 3.175516e-01
    outer loop
      vertex   1.024540e-01 2.210399e-02 -4.337107e-02
      vertex   1.019140e-01 2.295999e-02 -4.424707e-02
      vertex   1.009080e-01 2.369599e-02 -4.394106e-02
    endloop
  endfacet
  facet normal 6.204964e-01 7.166097e-01 3.185195e-01
    outer loop
      vertex   1.003700e-01 2.335199e-02 -4.211907e-02
      vertex   1.024540e-01 2.210399e-02 -4.337107e-02
      vertex   1.009080e-01 2.369599e-02 -4.394106e-02
    endloop
  endfacet
endsolid
