solid outlet56
  facet normal 7.071257e-01 -5.698136e-04 -7.070877e-01
    outer loop
      vertex   1.131500e-01 2.040599e-02 -1.406931e-01
      vertex   1.131200e-01 2.040399e-02 -1.407231e-01
      vertex   1.130980e-01 2.041199e-02 -1.407451e-01
    endloop
  endfacet
  facet normal 7.031629e-01 1.595564e-01 -6.928951e-01
    outer loop
      vertex   1.130980e-01 2.041199e-02 -1.407451e-01
      vertex   1.126460e-01 2.055399e-02 -1.411711e-01
      vertex   1.123120e-01 2.080999e-02 -1.414511e-01
    endloop
  endfacet
  facet normal 7.103816e-01 1.870248e-01 -6.785128e-01
    outer loop
      vertex   1.123120e-01 2.080999e-02 -1.414511e-01
      vertex   1.121540e-01 2.092399e-02 -1.415851e-01
      vertex   1.119640e-01 2.111599e-02 -1.417311e-01
    endloop
  endfacet
  facet normal 7.030200e-01 1.614002e-01 -6.926130e-01
    outer loop
      vertex   1.119640e-01 2.111599e-02 -1.417311e-01
      vertex   1.115120e-01 2.159999e-02 -1.420771e-01
      vertex   1.112740e-01 2.209599e-02 -1.422031e-01
    endloop
  endfacet
  facet normal 6.959913e-01 1.642494e-01 -6.990123e-01
    outer loop
      vertex   1.112740e-01 2.209599e-02 -1.422031e-01
      vertex   1.111040e-01 2.254399e-02 -1.422671e-01
      vertex   1.110380e-01 2.306199e-02 -1.422111e-01
    endloop
  endfacet
  facet normal 6.908484e-01 1.701160e-01 -7.027013e-01
    outer loop
      vertex   1.110380e-01 2.306199e-02 -1.422111e-01
      vertex   1.109920e-01 2.341399e-02 -1.421711e-01
      vertex   1.110280e-01 2.377999e-02 -1.420471e-01
    endloop
  endfacet
  facet normal 7.012711e-01 1.684141e-01 -6.927161e-01
    outer loop
      vertex   1.110280e-01 2.377999e-02 -1.420471e-01
      vertex   1.110900e-01 2.425399e-02 -1.418691e-01
      vertex   1.112240e-01 2.456799e-02 -1.416571e-01
    endloop
  endfacet
  facet normal 7.036225e-01 1.668991e-01 -6.906954e-01
    outer loop
      vertex   1.112240e-01 2.456799e-02 -1.416571e-01
      vertex   1.113960e-01 2.495199e-02 -1.413891e-01
      vertex   1.116760e-01 2.521999e-02 -1.410391e-01
    endloop
  endfacet
  facet normal 7.021451e-01 1.737381e-01 -6.905124e-01
    outer loop
      vertex   1.116760e-01 2.521999e-02 -1.410391e-01
      vertex   1.118400e-01 2.536799e-02 -1.408351e-01
      vertex   1.120740e-01 2.539999e-02 -1.405891e-01
    endloop
  endfacet
  facet normal 7.045917e-01 1.651804e-01 -6.901203e-01
    outer loop
      vertex   1.120740e-01 2.539999e-02 -1.405891e-01
      vertex   1.124140e-01 2.541199e-02 -1.402391e-01
      vertex   1.127100e-01 2.524399e-02 -1.399771e-01
    endloop
  endfacet
  facet normal 7.067378e-01 1.726229e-01 -6.860926e-01
    outer loop
      vertex   1.127100e-01 2.524399e-02 -1.399771e-01
      vertex   1.129840e-01 2.509199e-02 -1.397331e-01
      vertex   1.131980e-01 2.481999e-02 -1.395811e-01
    endloop
  endfacet
  facet normal 7.060133e-01 1.673999e-01 -6.881297e-01
    outer loop
      vertex   1.131980e-01 2.481999e-02 -1.395811e-01
      vertex   1.134960e-01 2.440999e-02 -1.393751e-01
      vertex   1.138460e-01 2.360799e-02 -1.392111e-01
    endloop
  endfacet
  facet normal 6.896748e-01 1.646030e-01 -7.051627e-01
    outer loop
      vertex   1.138460e-01 2.360799e-02 -1.392111e-01
      vertex   1.139300e-01 2.337599e-02 -1.391831e-01
      vertex   1.140420e-01 2.256399e-02 -1.392631e-01
    endloop
  endfacet
  facet normal 7.054696e-01 1.663020e-01 -6.889530e-01
    outer loop
      vertex   1.140420e-01 2.256399e-02 -1.392631e-01
      vertex   1.140880e-01 2.228599e-02 -1.392831e-01
      vertex   1.140740e-01 2.160799e-02 -1.394611e-01
    endloop
  endfacet
  facet normal 7.172783e-01 1.582588e-01 -6.785765e-01
    outer loop
      vertex   1.140740e-01 2.160799e-02 -1.394611e-01
      vertex   1.140560e-01 2.139799e-02 -1.395291e-01
      vertex   1.139040e-01 2.079199e-02 -1.398311e-01
    endloop
  endfacet
  facet normal 6.865545e-01 1.804356e-01 -7.043337e-01
    outer loop
      vertex   1.139040e-01 2.079199e-02 -1.398311e-01
      vertex   1.138960e-01 2.075999e-02 -1.398471e-01
      vertex   1.138700e-01 2.073399e-02 -1.398791e-01
    endloop
  endfacet
  facet normal 7.032620e-01 1.696147e-01 -6.904009e-01
    outer loop
      vertex   1.138700e-01 2.073399e-02 -1.398791e-01
      vertex   1.136020e-01 2.038799e-02 -1.402371e-01
      vertex   1.131500e-01 2.040599e-02 -1.406931e-01
    endloop
  endfacet
  facet normal 7.060107e-01 1.786631e-01 -6.852944e-01
    outer loop
      vertex   1.131500e-01 2.040599e-02 -1.406931e-01
      vertex   1.130980e-01 2.041199e-02 -1.407451e-01
      vertex   1.123120e-01 2.080999e-02 -1.414511e-01
    endloop
  endfacet
  facet normal 6.986776e-01 1.555982e-01 -6.983114e-01
    outer loop
      vertex   1.123120e-01 2.080999e-02 -1.414511e-01
      vertex   1.119640e-01 2.111599e-02 -1.417311e-01
      vertex   1.112740e-01 2.209599e-02 -1.422031e-01
    endloop
  endfacet
  facet normal 7.065181e-01 1.669145e-01 -6.877294e-01
    outer loop
      vertex   1.112740e-01 2.209599e-02 -1.422031e-01
      vertex   1.110380e-01 2.306199e-02 -1.422111e-01
      vertex   1.110280e-01 2.377999e-02 -1.420471e-01
    endloop
  endfacet
  facet normal 7.037147e-01 1.667745e-01 -6.906315e-01
    outer loop
      vertex   1.110280e-01 2.377999e-02 -1.420471e-01
      vertex   1.112240e-01 2.456799e-02 -1.416571e-01
      vertex   1.116760e-01 2.521999e-02 -1.410391e-01
    endloop
  endfacet
  facet normal 7.046010e-01 1.665065e-01 -6.897920e-01
    outer loop
      vertex   1.116760e-01 2.521999e-02 -1.410391e-01
      vertex   1.120740e-01 2.539999e-02 -1.405891e-01
      vertex   1.127100e-01 2.524399e-02 -1.399771e-01
    endloop
  endfacet
  facet normal 7.042351e-01 1.657738e-01 -6.903419e-01
    outer loop
      vertex   1.127100e-01 2.524399e-02 -1.399771e-01
      vertex   1.131980e-01 2.481999e-02 -1.395811e-01
      vertex   1.138460e-01 2.360799e-02 -1.392111e-01
    endloop
  endfacet
  facet normal 7.039822e-01 1.665544e-01 -6.904119e-01
    outer loop
      vertex   1.138460e-01 2.360799e-02 -1.392111e-01
      vertex   1.140420e-01 2.256399e-02 -1.392631e-01
      vertex   1.140740e-01 2.160799e-02 -1.394611e-01
    endloop
  endfacet
  facet normal 6.929909e-01 1.729813e-01 -6.998865e-01
    outer loop
      vertex   1.140740e-01 2.160799e-02 -1.394611e-01
      vertex   1.139040e-01 2.079199e-02 -1.398311e-01
      vertex   1.138700e-01 2.073399e-02 -1.398791e-01
    endloop
  endfacet
  facet normal 7.043775e-01 1.663280e-01 -6.900632e-01
    outer loop
      vertex   1.138700e-01 2.073399e-02 -1.398791e-01
      vertex   1.131500e-01 2.040599e-02 -1.406931e-01
      vertex   1.123120e-01 2.080999e-02 -1.414511e-01
    endloop
  endfacet
  facet normal 7.056384e-01 1.668706e-01 -6.886426e-01
    outer loop
      vertex   1.123120e-01 2.080999e-02 -1.414511e-01
      vertex   1.112740e-01 2.209599e-02 -1.422031e-01
      vertex   1.110280e-01 2.377999e-02 -1.420471e-01
    endloop
  endfacet
  facet normal 7.046945e-01 1.657985e-01 -6.898670e-01
    outer loop
      vertex   1.110280e-01 2.377999e-02 -1.420471e-01
      vertex   1.116760e-01 2.521999e-02 -1.410391e-01
      vertex   1.127100e-01 2.524399e-02 -1.399771e-01
    endloop
  endfacet
  facet normal 7.048174e-01 1.665433e-01 -6.895620e-01
    outer loop
      vertex   1.127100e-01 2.524399e-02 -1.399771e-01
      vertex   1.138460e-01 2.360799e-02 -1.392111e-01
      vertex   1.140740e-01 2.160799e-02 -1.394611e-01
    endloop
  endfacet
  facet normal 7.044417e-01 1.656563e-01 -6.901593e-01
    outer loop
      vertex   1.140740e-01 2.160799e-02 -1.394611e-01
      vertex   1.138700e-01 2.073399e-02 -1.398791e-01
      vertex   1.123120e-01 2.080999e-02 -1.414511e-01
    endloop
  endfacet
  facet normal 7.045258e-01 1.661250e-01 -6.899608e-01
    outer loop
      vertex   1.123120e-01 2.080999e-02 -1.414511e-01
      vertex   1.110280e-01 2.377999e-02 -1.420471e-01
      vertex   1.127100e-01 2.524399e-02 -1.399771e-01
    endloop
  endfacet
  facet normal 7.042466e-01 1.662359e-01 -6.902190e-01
    outer loop
      vertex   1.123120e-01 2.080999e-02 -1.414511e-01
      vertex   1.127100e-01 2.524399e-02 -1.399771e-01
      vertex   1.140740e-01 2.160799e-02 -1.394611e-01
    endloop
  endfacet
endsolid
