solid outlet50
  facet normal 7.786017e-01 -5.294150e-01 -3.368963e-01
    outer loop
      vertex   1.323240e-01 -9.828009e-03 -1.235351e-01
      vertex   1.322900e-01 -9.864010e-03 -1.235571e-01
      vertex   1.322560e-01 -9.886009e-03 -1.236011e-01
    endloop
  endfacet
  facet normal 7.901389e-01 -4.603634e-01 -4.046554e-01
    outer loop
      vertex   1.322560e-01 -9.886009e-03 -1.236011e-01
      vertex   1.315580e-01 -1.019801e-02 -1.246091e-01
      vertex   1.311700e-01 -1.013326e-02 -1.254403e-01
    endloop
  endfacet
  facet normal 9.994131e-01 3.006837e-02 -1.641232e-02
    outer loop
      vertex   1.311700e-01 -1.013326e-02 -1.254403e-01
      vertex   1.311700e-01 -1.013476e-02 -1.254431e-01
      vertex   1.311680e-01 -1.009401e-02 -1.254911e-01
    endloop
  endfacet
  facet normal 8.348368e-01 -4.124636e-01 -3.645837e-01
    outer loop
      vertex   1.311680e-01 -1.009401e-02 -1.254911e-01
      vertex   1.311580e-01 -9.522009e-03 -1.261611e-01
      vertex   1.311620e-01 -9.498009e-03 -1.261791e-01
    endloop
  endfacet
  facet normal 8.159148e-01 -4.554515e-01 -3.561558e-01
    outer loop
      vertex   1.313200e-01 -9.118010e-03 -1.263031e-01
      vertex   1.316340e-01 -8.360009e-03 -1.265531e-01
      vertex   1.316640e-01 -8.300010e-03 -1.265611e-01
    endloop
  endfacet
  facet normal 7.893064e-01 -4.606612e-01 -4.059392e-01
    outer loop
      vertex   1.311680e-01 -1.009401e-02 -1.254911e-01
      vertex   1.311620e-01 -9.498009e-03 -1.261791e-01
      vertex   1.313200e-01 -9.118010e-03 -1.263031e-01
    endloop
  endfacet
  facet normal 7.839887e-01 -4.755819e-01 -3.989782e-01
    outer loop
      vertex   1.322560e-01 -9.886009e-03 -1.236011e-01
      vertex   1.311700e-01 -1.013326e-02 -1.254403e-01
      vertex   1.311680e-01 -1.009401e-02 -1.254911e-01
    endloop
  endfacet
  facet normal 7.894819e-01 -4.473647e-01 -4.202179e-01
    outer loop
      vertex   1.329380e-01 -9.154009e-03 -1.230991e-01
      vertex   1.323240e-01 -9.828009e-03 -1.235351e-01
      vertex   1.322560e-01 -9.886009e-03 -1.236011e-01
    endloop
  endfacet
  facet normal 7.773862e-01 -4.616611e-01 -4.272467e-01
    outer loop
      vertex   1.333100e-01 -8.274010e-03 -1.233731e-01
      vertex   1.330520e-01 -8.888010e-03 -1.231791e-01
      vertex   1.329380e-01 -9.154009e-03 -1.230991e-01
    endloop
  endfacet
  facet normal 8.591219e-01 -3.618660e-01 -3.618876e-01
    outer loop
      vertex   1.333820e-01 -7.100009e-03 -1.245691e-01
      vertex   1.333980e-01 -7.136009e-03 -1.244951e-01
      vertex   1.333980e-01 -7.152009e-03 -1.244791e-01
    endloop
  endfacet
  facet normal 7.932589e-01 -4.578646e-01 -4.013730e-01
    outer loop
      vertex   1.333980e-01 -7.152009e-03 -1.244791e-01
      vertex   1.333640e-01 -7.942009e-03 -1.236451e-01
      vertex   1.333100e-01 -8.274010e-03 -1.233731e-01
    endloop
  endfacet
  facet normal 7.908589e-01 -4.600094e-01 -4.036504e-01
    outer loop
      vertex   1.333100e-01 -8.274010e-03 -1.233731e-01
      vertex   1.329380e-01 -9.154009e-03 -1.230991e-01
      vertex   1.322560e-01 -9.886009e-03 -1.236011e-01
    endloop
  endfacet
  facet normal 7.905951e-01 -4.596897e-01 -4.045303e-01
    outer loop
      vertex   1.322560e-01 -9.886009e-03 -1.236011e-01
      vertex   1.311680e-01 -1.009401e-02 -1.254911e-01
      vertex   1.313200e-01 -9.118010e-03 -1.263031e-01
    endloop
  endfacet
  facet normal 7.903258e-01 -4.600022e-01 -4.047013e-01
    outer loop
      vertex   1.313200e-01 -9.118010e-03 -1.263031e-01
      vertex   1.316640e-01 -8.300010e-03 -1.265611e-01
      vertex   1.319680e-01 -7.878009e-03 -1.264471e-01
    endloop
  endfacet
  facet normal 7.960587e-01 -4.709949e-01 -3.800714e-01
    outer loop
      vertex   1.319680e-01 -7.878009e-03 -1.264471e-01
      vertex   1.323320e-01 -7.358009e-03 -1.263291e-01
      vertex   1.323840e-01 -7.304009e-03 -1.262871e-01
    endloop
  endfacet
  facet normal 7.972411e-01 -4.167709e-01 -4.367020e-01
    outer loop
      vertex   1.323840e-01 -7.304009e-03 -1.262871e-01
      vertex   1.329860e-01 -6.888009e-03 -1.255851e-01
      vertex   1.330100e-01 -6.884009e-03 -1.255451e-01
    endloop
  endfacet
  facet normal 7.946357e-01 -4.536375e-01 -4.034440e-01
    outer loop
      vertex   1.331620e-01 -6.982009e-03 -1.251351e-01
      vertex   1.333820e-01 -7.100009e-03 -1.245691e-01
      vertex   1.333980e-01 -7.152009e-03 -1.244791e-01
    endloop
  endfacet
  facet normal 7.889954e-01 -4.635150e-01 -4.032866e-01
    outer loop
      vertex   1.323840e-01 -7.304009e-03 -1.262871e-01
      vertex   1.330100e-01 -6.884009e-03 -1.255451e-01
      vertex   1.331620e-01 -6.982009e-03 -1.251351e-01
    endloop
  endfacet
  facet normal 7.903510e-01 -4.600087e-01 -4.046447e-01
    outer loop
      vertex   1.313200e-01 -9.118010e-03 -1.263031e-01
      vertex   1.319680e-01 -7.878009e-03 -1.264471e-01
      vertex   1.323840e-01 -7.304009e-03 -1.262871e-01
    endloop
  endfacet
  facet normal 7.905852e-01 -4.597058e-01 -4.045314e-01
    outer loop
      vertex   1.333100e-01 -8.274010e-03 -1.233731e-01
      vertex   1.322560e-01 -9.886009e-03 -1.236011e-01
      vertex   1.313200e-01 -9.118010e-03 -1.263031e-01
    endloop
  endfacet
  facet normal 7.908333e-01 -4.599902e-01 -4.037223e-01
    outer loop
      vertex   1.331620e-01 -6.982009e-03 -1.251351e-01
      vertex   1.333980e-01 -7.152009e-03 -1.244791e-01
      vertex   1.333100e-01 -8.274010e-03 -1.233731e-01
    endloop
  endfacet
  facet normal 7.901803e-01 -4.599047e-01 -4.050959e-01
    outer loop
      vertex   1.313200e-01 -9.118010e-03 -1.263031e-01
      vertex   1.323840e-01 -7.304009e-03 -1.262871e-01
      vertex   1.331620e-01 -6.982009e-03 -1.251351e-01
    endloop
  endfacet
  facet normal 7.903090e-01 -4.605617e-01 -4.040973e-01
    outer loop
      vertex   1.313200e-01 -9.118010e-03 -1.263031e-01
      vertex   1.331620e-01 -6.982009e-03 -1.251351e-01
      vertex   1.333100e-01 -8.274010e-03 -1.233731e-01
    endloop
  endfacet
endsolid
