solid outlet20
  facet normal -2.464219e-02 4.886360e-01 -8.721397e-01
    outer loop
      vertex   8.596599e-02 5.031999e-02 -1.568811e-01
      vertex   8.622799e-02 4.991199e-02 -1.571171e-01
      vertex   8.626399e-02 4.979599e-02 -1.571831e-01
    endloop
  endfacet
  facet normal -1.245934e-02 4.979008e-01 -8.671445e-01
    outer loop
      vertex   8.625799e-02 4.948999e-02 -1.573591e-01
      vertex   8.630199e-02 4.889199e-02 -1.577031e-01
      vertex   8.614599e-02 4.859200e-02 -1.578731e-01
    endloop
  endfacet
  facet normal -1.759818e-03 4.985921e-01 -8.668349e-01
    outer loop
      vertex   8.596599e-02 5.031999e-02 -1.568811e-01
      vertex   8.626399e-02 4.979599e-02 -1.571831e-01
      vertex   8.625799e-02 4.948999e-02 -1.573591e-01
    endloop
  endfacet
  facet normal -4.456284e-03 4.973838e-01 -8.675192e-01
    outer loop
      vertex   8.519999e-02 5.124799e-02 -1.563451e-01
      vertex   8.555199e-02 5.099999e-02 -1.564891e-01
      vertex   8.596599e-02 5.031999e-02 -1.568811e-01
    endloop
  endfacet
  facet normal -3.781544e-03 4.997366e-01 -8.661692e-01
    outer loop
      vertex   8.379199e-02 5.179199e-02 -1.560251e-01
      vertex   8.453199e-02 5.170399e-02 -1.560791e-01
      vertex   8.519999e-02 5.124799e-02 -1.563451e-01
    endloop
  endfacet
  facet normal -4.396636e-03 5.039407e-01 -8.637271e-01
    outer loop
      vertex   8.264599e-02 5.178199e-02 -1.560251e-01
      vertex   8.336999e-02 5.189799e-02 -1.559611e-01
      vertex   8.379199e-02 5.179199e-02 -1.560251e-01
    endloop
  endfacet
  facet normal -1.143698e-02 5.071234e-01 -8.617976e-01
    outer loop
      vertex   8.198598e-02 5.150200e-02 -1.561811e-01
      vertex   8.226399e-02 5.170199e-02 -1.560671e-01
      vertex   8.264599e-02 5.178199e-02 -1.560251e-01
    endloop
  endfacet
  facet normal -9.551273e-04 4.925265e-01 -8.702969e-01
    outer loop
      vertex   8.108399e-02 5.084999e-02 -1.565491e-01
      vertex   8.136599e-02 5.115799e-02 -1.563751e-01
      vertex   8.198598e-02 5.150200e-02 -1.561811e-01
    endloop
  endfacet
  facet normal 2.370249e-02 4.878436e-01 -8.726092e-01
    outer loop
      vertex   8.072799e-02 4.999799e-02 -1.570351e-01
      vertex   8.077799e-02 5.017799e-02 -1.569331e-01
      vertex   8.108399e-02 5.084999e-02 -1.565491e-01
    endloop
  endfacet
  facet normal -3.160927e-02 4.945898e-01 -8.685516e-01
    outer loop
      vertex   8.093799e-02 4.915599e-02 -1.575211e-01
      vertex   8.088599e-02 4.924399e-02 -1.574691e-01
      vertex   8.084999e-02 4.946999e-02 -1.573391e-01
    endloop
  endfacet
  facet normal -7.145961e-03 4.977122e-01 -8.673128e-01
    outer loop
      vertex   8.084999e-02 4.946999e-02 -1.573391e-01
      vertex   8.072799e-02 4.999799e-02 -1.570351e-01
      vertex   8.108399e-02 5.084999e-02 -1.565491e-01
    endloop
  endfacet
  facet normal -6.450605e-03 4.982678e-01 -8.669992e-01
    outer loop
      vertex   8.108399e-02 5.084999e-02 -1.565491e-01
      vertex   8.198598e-02 5.150200e-02 -1.561811e-01
      vertex   8.264599e-02 5.178199e-02 -1.560251e-01
    endloop
  endfacet
  facet normal -4.350354e-03 4.986359e-01 -8.668006e-01
    outer loop
      vertex   8.264599e-02 5.178199e-02 -1.560251e-01
      vertex   8.379199e-02 5.179199e-02 -1.560251e-01
      vertex   8.519999e-02 5.124799e-02 -1.563451e-01
    endloop
  endfacet
  facet normal -3.074203e-03 4.982432e-01 -8.670319e-01
    outer loop
      vertex   8.519999e-02 5.124799e-02 -1.563451e-01
      vertex   8.596599e-02 5.031999e-02 -1.568811e-01
      vertex   8.625799e-02 4.948999e-02 -1.573591e-01
    endloop
  endfacet
  facet normal -1.029803e-02 4.977101e-01 -8.672823e-01
    outer loop
      vertex   8.625799e-02 4.948999e-02 -1.573591e-01
      vertex   8.614599e-02 4.859200e-02 -1.578731e-01
      vertex   8.585999e-02 4.813999e-02 -1.581291e-01
    endloop
  endfacet
  facet normal -5.056812e-03 4.957013e-01 -8.684784e-01
    outer loop
      vertex   8.543199e-02 4.782999e-02 -1.583071e-01
      vertex   8.511599e-02 4.759200e-02 -1.584411e-01
      vertex   8.420199e-02 4.741799e-02 -1.585351e-01
    endloop
  endfacet
  facet normal 3.045613e-03 4.947673e-01 -8.690201e-01
    outer loop
      vertex   8.625799e-02 4.948999e-02 -1.573591e-01
      vertex   8.585999e-02 4.813999e-02 -1.581291e-01
      vertex   8.543199e-02 4.782999e-02 -1.583071e-01
    endloop
  endfacet
  facet normal -4.663310e-03 4.975216e-01 -8.674390e-01
    outer loop
      vertex   8.264599e-02 5.178199e-02 -1.560251e-01
      vertex   8.519999e-02 5.124799e-02 -1.563451e-01
      vertex   8.625799e-02 4.948999e-02 -1.573591e-01
    endloop
  endfacet
  facet normal -5.887170e-03 4.975556e-01 -8.674121e-01
    outer loop
      vertex   8.084999e-02 4.946999e-02 -1.573391e-01
      vertex   8.108399e-02 5.084999e-02 -1.565491e-01
      vertex   8.264599e-02 5.178199e-02 -1.560251e-01
    endloop
  endfacet
  facet normal 3.492987e-03 5.022152e-01 -8.647356e-01
    outer loop
      vertex   8.147198e-02 4.843599e-02 -1.579371e-01
      vertex   8.093799e-02 4.915599e-02 -1.575211e-01
      vertex   8.084999e-02 4.946999e-02 -1.573391e-01
    endloop
  endfacet
  facet normal -3.746461e-02 4.631695e-01 -8.854775e-01
    outer loop
      vertex   8.252999e-02 4.764599e-02 -1.583951e-01
      vertex   8.180799e-02 4.814199e-02 -1.581051e-01
      vertex   8.147198e-02 4.843599e-02 -1.579371e-01
    endloop
  endfacet
  facet normal -8.109632e-03 4.881216e-01 -8.727379e-01
    outer loop
      vertex   8.391399e-02 4.733999e-02 -1.585791e-01
      vertex   8.351199e-02 4.741199e-02 -1.585351e-01
      vertex   8.252999e-02 4.764599e-02 -1.583951e-01
    endloop
  endfacet
  facet normal 1.362459e-02 4.527014e-01 -8.915581e-01
    outer loop
      vertex   8.543199e-02 4.782999e-02 -1.583071e-01
      vertex   8.420199e-02 4.741799e-02 -1.585351e-01
      vertex   8.391399e-02 4.733999e-02 -1.585791e-01
    endloop
  endfacet
  facet normal -4.576844e-03 4.976240e-01 -8.673808e-01
    outer loop
      vertex   8.264599e-02 5.178199e-02 -1.560251e-01
      vertex   8.625799e-02 4.948999e-02 -1.573591e-01
      vertex   8.543199e-02 4.782999e-02 -1.583071e-01
    endloop
  endfacet
  facet normal -6.296023e-03 4.977939e-01 -8.672725e-01
    outer loop
      vertex   8.147198e-02 4.843599e-02 -1.579371e-01
      vertex   8.084999e-02 4.946999e-02 -1.573391e-01
      vertex   8.264599e-02 5.178199e-02 -1.560251e-01
    endloop
  endfacet
  facet normal -5.889848e-03 4.956235e-01 -8.685175e-01
    outer loop
      vertex   8.391399e-02 4.733999e-02 -1.585791e-01
      vertex   8.252999e-02 4.764599e-02 -1.583951e-01
      vertex   8.147198e-02 4.843599e-02 -1.579371e-01
    endloop
  endfacet
  facet normal -5.092170e-03 4.973498e-01 -8.675351e-01
    outer loop
      vertex   8.264599e-02 5.178199e-02 -1.560251e-01
      vertex   8.543199e-02 4.782999e-02 -1.583071e-01
      vertex   8.391399e-02 4.733999e-02 -1.585791e-01
    endloop
  endfacet
  facet normal -4.822042e-03 4.974085e-01 -8.675030e-01
    outer loop
      vertex   8.391399e-02 4.733999e-02 -1.585791e-01
      vertex   8.147198e-02 4.843599e-02 -1.579371e-01
      vertex   8.264599e-02 5.178199e-02 -1.560251e-01
    endloop
  endfacet
endsolid
