solid outlet49
  facet normal 5.663766e-01 -6.351363e-01 -5.251851e-01
    outer loop
      vertex   1.303260e-01 -2.506601e-02 -1.345591e-01
      vertex   1.303940e-01 -2.513601e-02 -1.344011e-01
      vertex   1.304000e-01 -2.517201e-02 -1.343511e-01
    endloop
  endfacet
  facet normal 5.963581e-01 -6.086249e-01 -5.233858e-01
    outer loop
      vertex   1.303780e-01 -2.540201e-02 -1.341071e-01
      vertex   1.303440e-01 -2.599601e-02 -1.334551e-01
      vertex   1.303060e-01 -2.609001e-02 -1.333891e-01
    endloop
  endfacet
  facet normal 5.937996e-01 -6.115278e-01 -5.229108e-01
    outer loop
      vertex   1.303260e-01 -2.506601e-02 -1.345591e-01
      vertex   1.304000e-01 -2.517201e-02 -1.343511e-01
      vertex   1.303780e-01 -2.540201e-02 -1.341071e-01
    endloop
  endfacet
  facet normal 6.043104e-01 -5.978220e-01 -5.267046e-01
    outer loop
      vertex   1.296960e-01 -2.445001e-02 -1.359811e-01
      vertex   1.298600e-01 -2.450801e-02 -1.357271e-01
      vertex   1.303260e-01 -2.506601e-02 -1.345591e-01
    endloop
  endfacet
  facet normal 5.900653e-01 -6.107818e-01 -5.279854e-01
    outer loop
      vertex   1.290000e-01 -2.460201e-02 -1.365831e-01
      vertex   1.291880e-01 -2.451201e-02 -1.364771e-01
      vertex   1.296960e-01 -2.445001e-02 -1.359811e-01
    endloop
  endfacet
  facet normal 5.898749e-01 -6.109229e-01 -5.280348e-01
    outer loop
      vertex   1.283120e-01 -2.537001e-02 -1.364631e-01
      vertex   1.284680e-01 -2.519001e-02 -1.364971e-01
      vertex   1.290000e-01 -2.460201e-02 -1.365831e-01
    endloop
  endfacet
  facet normal 5.519626e-01 -6.283992e-01 -5.481347e-01
    outer loop
      vertex   1.281600e-01 -2.638801e-02 -1.354491e-01
      vertex   1.282620e-01 -2.555001e-02 -1.363071e-01
      vertex   1.283120e-01 -2.537001e-02 -1.364631e-01
    endloop
  endfacet
  facet normal 5.836691e-01 -6.181528e-01 -5.265145e-01
    outer loop
      vertex   1.285840e-01 -2.692801e-02 -1.343451e-01
      vertex   1.282200e-01 -2.654601e-02 -1.351971e-01
      vertex   1.281600e-01 -2.638801e-02 -1.354491e-01
    endloop
  endfacet
  facet normal 5.786990e-01 -6.300857e-01 -5.177833e-01
    outer loop
      vertex   1.292420e-01 -2.698601e-02 -1.335391e-01
      vertex   1.287660e-01 -2.698601e-02 -1.340711e-01
      vertex   1.285840e-01 -2.692801e-02 -1.343451e-01
    endloop
  endfacet
  facet normal 5.894758e-01 -6.136630e-01 -5.252961e-01
    outer loop
      vertex   1.298380e-01 -2.667201e-02 -1.332371e-01
      vertex   1.296400e-01 -2.680401e-02 -1.333051e-01
      vertex   1.292420e-01 -2.698601e-02 -1.335391e-01
    endloop
  endfacet
  facet normal 5.900419e-01 -6.116913e-01 -5.269576e-01
    outer loop
      vertex   1.303780e-01 -2.540201e-02 -1.341071e-01
      vertex   1.303060e-01 -2.609001e-02 -1.333891e-01
      vertex   1.301220e-01 -2.631401e-02 -1.333351e-01
    endloop
  endfacet
  facet normal 5.895433e-01 -6.119889e-01 -5.271700e-01
    outer loop
      vertex   1.301220e-01 -2.631401e-02 -1.333351e-01
      vertex   1.298380e-01 -2.667201e-02 -1.332371e-01
      vertex   1.292420e-01 -2.698601e-02 -1.335391e-01
    endloop
  endfacet
  facet normal 5.905020e-01 -6.119721e-01 -5.261155e-01
    outer loop
      vertex   1.292420e-01 -2.698601e-02 -1.335391e-01
      vertex   1.285840e-01 -2.692801e-02 -1.343451e-01
      vertex   1.281600e-01 -2.638801e-02 -1.354491e-01
    endloop
  endfacet
  facet normal 5.912402e-01 -6.117558e-01 -5.255376e-01
    outer loop
      vertex   1.281600e-01 -2.638801e-02 -1.354491e-01
      vertex   1.283120e-01 -2.537001e-02 -1.364631e-01
      vertex   1.290000e-01 -2.460201e-02 -1.365831e-01
    endloop
  endfacet
  facet normal 5.892516e-01 -6.128202e-01 -5.265300e-01
    outer loop
      vertex   1.290000e-01 -2.460201e-02 -1.365831e-01
      vertex   1.296960e-01 -2.445001e-02 -1.359811e-01
      vertex   1.303260e-01 -2.506601e-02 -1.345591e-01
    endloop
  endfacet
  facet normal 5.973511e-01 -6.091960e-01 -5.215860e-01
    outer loop
      vertex   1.303260e-01 -2.506601e-02 -1.345591e-01
      vertex   1.303780e-01 -2.540201e-02 -1.341071e-01
      vertex   1.301220e-01 -2.631401e-02 -1.333351e-01
    endloop
  endfacet
  facet normal 5.898355e-01 -6.127338e-01 -5.259765e-01
    outer loop
      vertex   1.301220e-01 -2.631401e-02 -1.333351e-01
      vertex   1.292420e-01 -2.698601e-02 -1.335391e-01
      vertex   1.281600e-01 -2.638801e-02 -1.354491e-01
    endloop
  endfacet
  facet normal 5.899449e-01 -6.119365e-01 -5.267816e-01
    outer loop
      vertex   1.281600e-01 -2.638801e-02 -1.354491e-01
      vertex   1.290000e-01 -2.460201e-02 -1.365831e-01
      vertex   1.303260e-01 -2.506601e-02 -1.345591e-01
    endloop
  endfacet
  facet normal 5.899915e-01 -6.124508e-01 -5.261312e-01
    outer loop
      vertex   1.303260e-01 -2.506601e-02 -1.345591e-01
      vertex   1.301220e-01 -2.631401e-02 -1.333351e-01
      vertex   1.281600e-01 -2.638801e-02 -1.354491e-01
    endloop
  endfacet
endsolid
