solid outlet25
  facet normal 3.204120e-01 6.270344e-01 -7.100451e-01
    outer loop
      vertex   -6.528402e-02 -2.957601e-02 -1.246351e-01
      vertex   -6.552602e-02 -2.986001e-02 -1.249951e-01
      vertex   -6.574802e-02 -2.993001e-02 -1.251571e-01
    endloop
  endfacet
  facet normal 3.221158e-01 6.289311e-01 -7.075925e-01
    outer loop
      vertex   -6.574802e-02 -2.993001e-02 -1.251571e-01
      vertex   -6.605802e-02 -3.001201e-02 -1.253711e-01
      vertex   -6.671602e-02 -2.977401e-02 -1.254591e-01
    endloop
  endfacet
  facet normal 3.106070e-01 6.201524e-01 -7.203710e-01
    outer loop
      vertex   -6.671602e-02 -2.977401e-02 -1.254591e-01
      vertex   -6.691002e-02 -2.971401e-02 -1.254911e-01
      vertex   -6.748602e-02 -2.908401e-02 -1.251971e-01
    endloop
  endfacet
  facet normal 3.191293e-01 6.278658e-01 -7.098880e-01
    outer loop
      vertex   -6.748602e-02 -2.908401e-02 -1.251971e-01
      vertex   -6.777202e-02 -2.881201e-02 -1.250851e-01
      vertex   -6.785802e-02 -2.810801e-02 -1.245011e-01
    endloop
  endfacet
  facet normal 3.231978e-01 6.257965e-01 -7.098746e-01
    outer loop
      vertex   -6.785802e-02 -2.810801e-02 -1.245011e-01
      vertex   -6.793002e-02 -2.776001e-02 -1.242271e-01
      vertex   -6.767402e-02 -2.750201e-02 -1.238831e-01
    endloop
  endfacet
  facet normal 3.134564e-01 6.340796e-01 -7.068863e-01
    outer loop
      vertex   -6.767402e-02 -2.750201e-02 -1.238831e-01
      vertex   -6.709002e-02 -2.704601e-02 -1.232151e-01
      vertex   -6.672202e-02 -2.691801e-02 -1.229371e-01
    endloop
  endfacet
  facet normal 3.259136e-01 6.460678e-01 -6.902005e-01
    outer loop
      vertex   -6.672202e-02 -2.691801e-02 -1.229371e-01
      vertex   -6.650402e-02 -2.696601e-02 -1.228791e-01
      vertex   -6.625002e-02 -2.709201e-02 -1.228771e-01
    endloop
  endfacet
  facet normal 3.229506e-01 6.235451e-01 -7.119652e-01
    outer loop
      vertex   -6.625002e-02 -2.709201e-02 -1.228771e-01
      vertex   -6.557602e-02 -2.706201e-02 -1.225451e-01
      vertex   -6.529802e-02 -2.719001e-02 -1.225311e-01
    endloop
  endfacet
  facet normal 1.913459e-01 5.830114e-01 -7.896103e-01
    outer loop
      vertex   -6.529802e-02 -2.719001e-02 -1.225311e-01
      vertex   -6.495402e-02 -2.767401e-02 -1.228051e-01
      vertex   -6.490402e-02 -2.775001e-02 -1.228491e-01
    endloop
  endfacet
  facet normal 3.436916e-01 6.170492e-01 -7.079028e-01
    outer loop
      vertex   -6.484602e-02 -2.845001e-02 -1.234431e-01
      vertex   -6.483602e-02 -2.856801e-02 -1.235411e-01
      vertex   -6.496002e-02 -2.892801e-02 -1.239151e-01
    endloop
  endfacet
  facet normal 3.206244e-01 6.281643e-01 -7.089496e-01
    outer loop
      vertex   -6.529802e-02 -2.719001e-02 -1.225311e-01
      vertex   -6.490402e-02 -2.775001e-02 -1.228491e-01
      vertex   -6.484602e-02 -2.845001e-02 -1.234431e-01
    endloop
  endfacet
  facet normal 3.212498e-01 6.265588e-01 -7.100863e-01
    outer loop
      vertex   -6.767402e-02 -2.750201e-02 -1.238831e-01
      vertex   -6.672202e-02 -2.691801e-02 -1.229371e-01
      vertex   -6.625002e-02 -2.709201e-02 -1.228771e-01
    endloop
  endfacet
  facet normal 3.220836e-01 6.281914e-01 -7.082639e-01
    outer loop
      vertex   -6.625002e-02 -2.709201e-02 -1.228771e-01
      vertex   -6.529802e-02 -2.719001e-02 -1.225311e-01
      vertex   -6.484602e-02 -2.845001e-02 -1.234431e-01
    endloop
  endfacet
  facet normal 3.816627e-01 6.017561e-01 -7.015862e-01
    outer loop
      vertex   -6.484602e-02 -2.845001e-02 -1.234431e-01
      vertex   -6.496002e-02 -2.892801e-02 -1.239151e-01
      vertex   -6.509402e-02 -2.937001e-02 -1.243671e-01
    endloop
  endfacet
  facet normal 3.169097e-01 6.300306e-01 -7.089639e-01
    outer loop
      vertex   -6.509402e-02 -2.937001e-02 -1.243671e-01
      vertex   -6.528402e-02 -2.957601e-02 -1.246351e-01
      vertex   -6.574802e-02 -2.993001e-02 -1.251571e-01
    endloop
  endfacet
  facet normal 3.221716e-01 6.283814e-01 -7.080553e-01
    outer loop
      vertex   -6.574802e-02 -2.993001e-02 -1.251571e-01
      vertex   -6.671602e-02 -2.977401e-02 -1.254591e-01
      vertex   -6.748602e-02 -2.908401e-02 -1.251971e-01
    endloop
  endfacet
  facet normal 3.181440e-01 6.278288e-01 -7.103628e-01
    outer loop
      vertex   -6.748602e-02 -2.908401e-02 -1.251971e-01
      vertex   -6.785802e-02 -2.810801e-02 -1.245011e-01
      vertex   -6.767402e-02 -2.750201e-02 -1.238831e-01
    endloop
  endfacet
  facet normal 3.207082e-01 6.273426e-01 -7.096390e-01
    outer loop
      vertex   -6.767402e-02 -2.750201e-02 -1.238831e-01
      vertex   -6.625002e-02 -2.709201e-02 -1.228771e-01
      vertex   -6.484602e-02 -2.845001e-02 -1.234431e-01
    endloop
  endfacet
  facet normal 3.212111e-01 6.265840e-01 -7.100816e-01
    outer loop
      vertex   -6.484602e-02 -2.845001e-02 -1.234431e-01
      vertex   -6.509402e-02 -2.937001e-02 -1.243671e-01
      vertex   -6.574802e-02 -2.993001e-02 -1.251571e-01
    endloop
  endfacet
  facet normal 3.216764e-01 6.273084e-01 -7.092309e-01
    outer loop
      vertex   -6.574802e-02 -2.993001e-02 -1.251571e-01
      vertex   -6.748602e-02 -2.908401e-02 -1.251971e-01
      vertex   -6.767402e-02 -2.750201e-02 -1.238831e-01
    endloop
  endfacet
  facet normal 3.206283e-01 6.269105e-01 -7.100569e-01
    outer loop
      vertex   -6.574802e-02 -2.993001e-02 -1.251571e-01
      vertex   -6.767402e-02 -2.750201e-02 -1.238831e-01
      vertex   -6.484602e-02 -2.845001e-02 -1.234431e-01
    endloop
  endfacet
endsolid
